# xmcd
#
# Track frame offsets: 
#        150
#        20160
#        46825
#        56435
#        65467
#        70732
#        77170
#        84390
#        91292
#        94910
#
# Disc length: 1288 seconds
#
# Revision: 0
# Processed by: cddbd v1.5.2PL0 Copyright (c) Steve Scherf et al.
# Submitted via: ExactAudioCopy v0.99pb3
#
DISCID=7a05060a
DTITLE=Herbert Grönemeyer - Flugzeuge im Bauch (mit Sinfonieorchester)
DTITLE=(maxi)
DYEAR=2000
DGENRE=Pop
TTITLE0=Flugzeuge im Bauch (mit Sinfonieorchester) (Radio edit)
TTITLE1=Flugzeuge im Bauch (mit Sinfonieorchester) (Album Version)
TTITLE2=Interview mit Herbert Grönemeyer 1
TTITLE3=Interview mit Herbert Grönemeyer 2
TTITLE4=Interview mit Herbert Grönemeyer 3
TTITLE5=Interview mit Herbert Grönemeyer 4
TTITLE6=Interview mit Herbert Grönemeyer 5
TTITLE7=Interview mit Herbert Grönemeyer 6
TTITLE8=Interview mit Herbert Grönemeyer 7
TTITLE9=Interview mit Herbert Grönemeyer 8
EXTD=
EXTT0=
EXTT1=
EXTT2=
EXTT3=
EXTT4=
EXTT5=
EXTT6=
EXTT7=
EXTT8=
EXTT9=
PLAYORDER=
